<svg width="40" height="40" viewBox="0 0 40 40" fill="none" xmlns="http://www.w3.org/2000/svg">
<path d="M4 4C4 1.79086 5.79086 0 8 0H24L36 12V36C36 38.2091 34.2091 40 32 40H8C5.79086 40 4 38.2091 4 36V4Z" fill="#0B7FFF"/>
<path opacity="0.3" d="M24 0L36 12H28C25.7909 12 24 10.2091 24 8V0Z" fill="#EBF4FF"/>
<path d="M7.63621 32V25.61H9.84121C11.9112 25.61 13.0722 26.762 13.0722 28.814C13.0722 30.857 11.9292 32 9.89522 32H7.63621ZM9.00421 30.848H9.84121C11.0742 30.848 11.6592 30.191 11.6592 28.805C11.6592 27.419 11.0742 26.762 9.84121 26.762H9.00421V30.848ZM16.9046 32.144C14.9606 32.144 13.7906 30.875 13.7906 28.814C13.7906 26.753 14.9606 25.466 16.9046 25.466C18.8486 25.466 20.0186 26.753 20.0186 28.814C20.0186 30.875 18.8486 32.144 16.9046 32.144ZM16.9046 30.992C17.9666 30.992 18.6056 30.2 18.6056 28.814C18.6056 27.428 17.9666 26.618 16.9046 26.618C15.8336 26.618 15.2036 27.428 15.2036 28.814C15.2036 30.2 15.8336 30.992 16.9046 30.992ZM23.7749 32.144C22.0289 32.144 20.7779 30.902 20.7779 28.814C20.7779 26.78 21.9569 25.466 23.8019 25.466C25.4759 25.466 26.3759 26.321 26.6459 27.842L25.2239 27.896C25.0799 27.095 24.5939 26.618 23.8019 26.618C22.7849 26.618 22.1909 27.482 22.1909 28.814C22.1909 30.164 22.8119 30.992 23.7929 30.992C24.6479 30.992 25.1159 30.479 25.2419 29.615L26.6729 29.669C26.4119 31.226 25.4399 32.144 23.7749 32.144ZM26.9415 32L29.1105 28.796L26.9595 25.61H28.5435L29.9385 27.761L31.2975 25.61H32.8905L30.7395 28.778L32.9175 32H31.3245L29.9205 29.813L28.5345 32H26.9415Z" fill="white"/>
</svg>
